<svg width="256" height="256" viewBox="0 0 256 256" fill="none" xmlns="http://www.w3.org/2000/svg">
<path d="M157.317 61.7813L170.613 54.0853V29.4453L114.661 61.7867C111.109 63.84 111.109 68.9707 114.661 71.024L170.667 103.365V143.408C170.667 149.125 167.616 154.405 162.667 157.264L144 168.043C134.096 173.76 121.893 173.76 111.995 168.043L72 144.944C68.4427 142.891 64 145.456 64 149.563V214.245L85.3333 201.925V186.523C85.3333 182.416 89.776 179.851 93.3333 181.904L111.995 192.683C121.899 198.4 134.096 198.4 144 192.683L184 169.584C188.949 166.725 192 161.445 192 155.728V91.0453L157.323 71.0187C153.771 68.9653 153.765 63.84 157.323 61.7867L157.317 61.7813Z" fill="#4122AA"/>
<path d="M144.005 118.757C134.101 124.475 121.904 124.475 112 118.757L85.3386 103.36L74.672 97.2267L64.0053 91.04L25.6053 68.8533C22.8853 73.6 21.3386 79.1467 21.3386 84.9067V171.093C21.3386 182.453 27.312 192.96 37.1253 198.667C37.1786 198.72 37.2853 198.773 37.3386 198.827L64.0053 214.24V149.579C64.0053 145.467 68.4586 142.901 72.016 144.965L74.672 146.507L85.3386 152.64L112 168.037C121.904 173.755 134.101 173.755 144.005 168.037L162.672 157.259C167.621 154.4 170.672 149.12 170.672 143.403V103.36L144.011 118.757H144.005Z" fill="url(#paint0_linear_2607_2191)"/>
<path d="M170.667 103.36L144.005 118.757C134.101 124.475 121.904 124.475 112 118.757L85.3387 103.36L74.672 97.2267L64.0053 91.04L25.6053 68.8533C28.3253 64.16 32.2187 60.2133 37.0187 57.3867C37.1253 57.28 37.232 57.2267 37.3387 57.1733L112 14.08C121.92 8.37332 134.08 8.37332 144 14.08L170.613 29.44L114.661 61.7813C111.109 63.8347 111.109 68.9653 114.661 71.0187L170.667 103.36Z" fill="url(#paint1_linear_2607_2191)"/>
<path d="M230.4 68.8533L192 91.04L157.323 71.0133C153.771 68.96 153.765 63.8347 157.323 61.7813L170.619 54.0853L192.005 41.7653L218.672 57.1787C218.725 57.232 218.832 57.2853 218.885 57.3387C223.739 60.1653 227.632 64.1653 230.405 68.8587L230.4 68.8533Z" fill="#7455DD"/>
<path d="M230.4 68.8533L192 91.04V155.744C192 161.451 188.96 166.72 184.027 169.584L143.995 192.683C134.096 198.395 121.899 198.395 112 192.677L93.3386 181.899C89.7813 179.845 85.3386 182.411 85.3386 186.517V226.56L112.005 241.92C116.965 244.8 122.459 246.187 128.005 246.187C133.552 246.187 139.045 244.8 144.005 241.92L218.672 198.827C218.779 198.773 218.885 198.72 218.992 198.613C228.752 192.907 234.672 182.453 234.672 171.093V84.9067C234.672 79.1467 233.12 73.6 230.4 68.8533Z" fill="url(#paint2_linear_2607_2191)"/>
<defs>
<linearGradient id="paint0_linear_2607_2191" x1="96.0053" y1="61.6377" x2="96.0053" y2="214.24" gradientUnits="userSpaceOnUse">
<stop stop-color="#B9AAEE"/>
<stop offset="1" stop-color="#9780E5"/>
</linearGradient>
<linearGradient id="paint1_linear_2607_2191" x1="135.892" y1="10.6667" x2="65.2841" y2="99.1983" gradientUnits="userSpaceOnUse">
<stop stop-color="#DCD5F6"/>
<stop offset="1" stop-color="#CBBFF2"/>
</linearGradient>
<linearGradient id="paint2_linear_2607_2191" x1="234.672" y1="231.995" x2="52.9831" y2="231.995" gradientUnits="userSpaceOnUse">
<stop offset="0.388723" stop-color="#5B35DE"/>
<stop offset="1" stop-color="#7455DD"/>
</linearGradient>
</defs>
</svg>
